# xmcd
#
# Track frame offsets: 
#        150
#        14480
#        30692
#        42807
#        52730
#        67872
#        82775
#        93742
#        106640
#        119147
#        134025
#        152870
#        166857
#        178352
#        194355
#        209245
#        223030
#        234787
#        249935
#        260217
#
# Disc length: 3627 seconds
#
# Revision: 1
# Processed by: cddbd v1.5.2PL0 Copyright (c) Steve Scherf et al.
# Submitted via: ExactAudioCopyFreeDBPlugin 1.0
#
DISCID=1d0e2914
DTITLE=Tom Astor - Meine schönsten Songs
DYEAR=1992
DGENRE=country
TTITLE0=Take it Easy-Nimms leicht
TTITLE1=Junger Adler
TTITLE2=Gute Fahrt auf allen Strassen
TTITLE3=Sicht weg Gas weg
TTITLE4=Sie war jung und frei
TTITLE5=Das schöne Mädchen von der Autobahn
TTITLE6=Zwei Trucker wie wir
TTITLE7=Ich bin neugeboren
TTITLE8=Junge zieh die Bremse an
TTITLE9=Geistertruck
TTITLE10=Ich bin kein Dichter kein Poet
TTITLE11=International Airport
TTITLE12=Freunde
TTITLE13=Ich Hau den Lukas
TTITLE14=Trucker's Glück
TTITLE15=Irgendwo am Horizont
TTITLE16=Tränen auf Leder
TTITLE17=Halt Abstand Junge
TTITLE18=Übermüdung tötet
TTITLE19=Hallo guten Morgen Deutschland
EXTD=
EXTT0=
EXTT1=Ein Lied für meinen Sohn
EXTT2=
EXTT3=
EXTT4=
EXTT5=
EXTT6=
EXTT7=Blaze Of Glory
EXTT8=
EXTT9=
EXTT10=
EXTT11=
EXTT12=
EXTT13=Mr Nothingoesright
EXTT14=
EXTT15=
EXTT16=
EXTT17=
EXTT18=
EXTT19=
PLAYORDER=
